<?xml version="1.0" encoding="UTF-8" standalone="no"?>
<!-- Created with Inkscape (http://www.inkscape.org/) -->

<svg
   xmlns:dc="http://purl.org/dc/elements/1.1/"
   xmlns:cc="http://creativecommons.org/ns#"
   xmlns:rdf="http://www.w3.org/1999/02/22-rdf-syntax-ns#"
   xmlns:svg="http://www.w3.org/2000/svg"
   xmlns="http://www.w3.org/2000/svg"
   version="1.2"
   width="318.75"
   height="318.75"
   viewBox="0 0 255 255"
   id="svg3058">
  <defs
     id="defs3080" />
  <metadata
     id="metadata3060">
Created by potrace 1.13, written by Peter Selinger 2001-2015
<rdf:RDF>
  <cc:Work
     rdf:about="">
    <dc:format>image/svg+xml</dc:format>
    <dc:type
       rdf:resource="http://purl.org/dc/dcmitype/StillImage" />
    <dc:title></dc:title>
  </cc:Work>
</rdf:RDF>
</metadata>
  <g
     transform="matrix(0.1,0,0,-0.1,0,255)"
     id="g3062"
     style="fill:#000000;stroke:none">
    <rect
       width="2226.2712"
       height="1022.8813"
       x="186.52542"
       y="-2376.0884"
       transform="scale(1,-1)"
       id="rect3262"
       style="fill:#ffffff" />
    <path
       d="m 0,1160.6644 0,-534.00001 0,-323 C -1.5466406,-18.380776 -0.79563912,0.56232902 318.75,-0.18979098 l 318.75,0 637.5,0 637.5,0 318.75,0 C 2550.3092,0.20124902 2550,-17.870396 2550,303.66439 l 0,323 0,534.00001 0,710 0,323 c 0.013,354.6074 -0.1305,354.6239 -318.75,355 -106.25,0 -318.75,0 -318.75,0 l -637.5,0 -637.5,0 -318.75,0 C -0.03560113,2548.1599 0,2526.3538 0,2193.6644 l 0,-323 z m 951,1057 27,-65 404,0 368.2887,1.7701 c 0,0 16.5219,-0.682 23.6532,-5.1922 20.2132,-12.7837 46.0621,-47.9787 57.5678,-65.8601 18.3205,-28.4724 27.9244,-37.8235 34.4461,-72.7738 10.1649,-54.4747 -14.4444,-66.4445 -15.2784,-99.745 -0.7138,-28.5011 44.9108,-77.9389 41.5452,-82.9809 -3.6917,-5.5306 -59.2712,47.5369 -61.0177,80.1195 -2.1939,40.9293 20.5253,63.3806 13.237,100.4693 -7.0542,35.8975 -17.9674,40.503 -30.4914,63.5556 -6.6528,12.2456 -36.9674,47.629 -44.9505,50.6375 -9.3576,3.5265 -13,-54 -13,-238 l 0,-238 188,-54 c 215,-61 311.0424,-89.5042 282.0424,-90.5042 -20,-1 -359.0424,67.5042 -565.0424,114.5042 -290,67 -461,63 -810,-19 -153,-36 -508,-97 -535,-92 -15,2 341,100 413,112 20,4 47.37065,11.3296 47.37065,14.3296 0,4 -22.37065,15.6704 -37.37065,28.6704 -27,22 -27,23 -5,17 22,-6 23,-5 11,17 -11,21 -11,22 4,9 10,-7 22.26483,-23.5381 22.26483,-19.5381 0,4 -0.0169,31.8801 7.98305,25.8801 10,-8 5.09428,-30.0428 10.09428,-22.0428 3,5 14.86615,16.9581 20.86615,16.9581 6,0 -7.03485,-12.6804 -10.82836,-23.1141 -4.40599,-12.1183 -5.40256,-15.1204 10.96611,-3.7728 17.42697,12.0813 11.21695,4.5818 -2.41136,-16.8658 -7.36329,-11.588 -4.95629,-18.7226 0.89978,-18.4469 14.3174,-1.6046 58.16552,11.4423 121.16552,24.9423 64,14 137.1675,24.1571 141,25 l 23.5602,5.1815 1.4398,209.8185 0,215 -75,0 c -65,0 -75,2 -75,18 -1,9 -6,29 -13,45 l -12,27 -92,-65 c -87,-62 -144,-83 -142,-52 0,13 208,185 225,186 6,1 23,-28 39,-64 z"
       id="path3064"
       style="fill:#1a1a1a" />
    <path
       d="m 1126,1911.6644 0,-210 28,3 27,3 3,208 2,207 -30,0 -30,0 z"
       id="path3066"
       style="fill:#1a1a1a" />
    <path
       d="m 1216,1917.6644 0,-205 98,0 c 53,0 142,-7 196,-15 55,-8 103,-15 108,-15 4,0 8,99 8,220 l 0,220 -205,0 -205,0 z"
       id="path3068"
       style="fill:#1a1a1a" />
    <path
       d="m 1656,1898.6644 c 0,-124 3,-227 8,-229 4,-2 19,-7 35,-11 l 27,-6 0,235 0,235 -35,0 -35,0 z"
       id="path3070"
       style="fill:#1a1a1a" />
    <flowRoot
       id="flowRoot3206"
       xml:space="preserve"
       style="font-size:40px;font-style:normal;font-weight:normal;line-height:125%;letter-spacing:0px;word-spacing:0px;fill:#000000;fill-opacity:1;stroke:none;font-family:Sans"><flowRegion
         id="flowRegion3208"><rect
           width="237.7272"
           height="120.725"
           x="38.82346"
           y="162.4782"
           id="rect3210" /></flowRegion><flowPara
         id="flowPara3212"></flowPara></flowRoot>    <g
       transform="matrix(1.0099837,0,0,-0.99011504,-16,0)"
       id="text3214"
       style="font-size:556.21514893px;font-style:normal;font-variant:normal;font-weight:normal;font-stretch:normal;line-height:125%;letter-spacing:0px;word-spacing:0px;fill:#ffffff;fill-opacity:1;font-family:NanumGothic;-inkscape-font-specification:NanumGothic">
      <path
         d="m 530.97046,-867.77335 c -4.44978,-3e-5 -6.67464,-1.85408 -6.67459,-5.56215 l 0,-406.0371 c -5e-5,-5.1909 2.22481,-7.7866 6.67459,-7.787 l 96.22522,0 c 42.27215,4e-4 75.08881,8.7144 98.45008,26.1421 23.73157,17.4285 35.59748,44.1268 35.59777,80.095 -2.9e-4,22.2489 -4.63541,41.3456 -13.90538,57.2902 -8.89971,15.5742 -21.69264,27.8109 -38.37885,36.7102 10.75325,4.0791 20.02349,9.4558 27.81076,16.1302 8.15755,6.6748 14.83213,14.2764 20.02375,22.8048 5.56186,8.5288 9.64077,17.6137 12.23673,27.2546 2.59537,9.2704 3.89321,18.5406 3.89351,27.81074 -3e-4,41.9016 -13.72026,73.23502 -41.15992,94.00036 -27.44018,20.76535 -67.11682,31.14802 -119.03005,31.14805 l -81.76362,0 m 56.73394,-360.42745 0,112.9117 30.03562,0 c 29.29382,2e-4 50.05917,-5.5619 62.2961,-16.6864 12.23651,-11.4949 18.35487,-26.1419 18.3551,-43.941 -2.3e-4,-15.5738 -5.37697,-28.1813 -16.13024,-37.8227 -10.75369,-9.6407 -29.10877,-14.4612 -55.0653,-14.4616 l -39.49128,0 m -1.11243,172.9829 0,127.92953 27.25454,0 c 35.5976,3e-5 60.44185,-5.56211 74.53283,-16.68645 14.46137,-11.49506 21.69216,-27.06907 21.69239,-46.72208 -2.3e-4,-20.0236 -7.78724,-35.783 -23.36103,-47.2783 -15.57422,-11.4949 -41.90171,-17.2425 -78.98255,-17.2427 l -21.13618,0"
         id="path3584"
         style="font-weight:600;letter-spacing:5.78227186px;fill:#ffffff;font-family:NanumGothic;-inkscape-font-specification:NanumGothic Semi-Bold" />
      <path
         d="m 1159.9744,-867.77335 c -2.596,-3e-5 -4.45,-0.37084 -5.5621,-1.11243 -1.1128,-0.37084 -2.2252,-1.85407 -3.3373,-4.44972 l -40.0475,-100.11873 -181.32615,0 -40.04749,100.11873 c -0.74169,2.59565 -1.66872,4.07888 -2.78108,4.44972 -1.1125,0.74159 -2.96655,1.1124 -5.56215,1.11243 l -51.17179,0 c -6.67459,-3e-5 -8.89945,-2.59569 -6.67459,-7.78701 l 162.41483,-405.48084 c 1.11226,-2.9661 1.85388,-4.6347 2.22486,-5.0059 0.74145,-0.7413 2.96631,-1.1121 6.67458,-1.1125 l 51.72798,0 c 3.3371,4e-4 5.3765,0.3712 6.1184,1.1125 0.7414,0.3712 1.6684,2.0398 2.7811,5.0059 l 162.4148,405.48084 c 1.8536,5.19132 -0.3712,7.78698 -6.6746,7.78701 l -51.1718,0 m -207.46823,-164.08345 135.16033,0 -67.3021,-171.3143 -67.85823,171.3143"
         id="path3586"
         style="font-weight:600;letter-spacing:5.78227186px;fill:#ffffff;font-family:NanumGothic;-inkscape-font-specification:NanumGothic Semi-Bold" />
      <path
         d="m 1468.6506,-897.80897 c -9.6413,10.38268 -22.0634,19.09671 -37.2664,26.14211 -14.8326,7.41618 -30.592,11.86589 -47.2783,13.34917 -8.8996,0.74158 -18.9114,0.74158 -30.0356,0 -10.7536,-0.74166 -21.3217,-2.03949 -31.7043,-3.89351 -10.0119,-1.48327 -19.2822,-3.33732 -27.8107,-5.56215 -8.1579,-1.85408 -14.0909,-3.70812 -17.7989,-5.56215 -5.5622,-2.59569 -8.8995,-4.63514 -10.0119,-6.11837 -1.1125,-1.11244 -1.2979,-3.70811 -0.5562,-7.78701 l 3.8935,-41.15992 c 0.3708,-2.96645 1.2978,-4.82049 2.7811,-5.56215 1.4832,-0.74158 4.2642,-0.18537 8.3432,1.66864 4.4497,1.85409 10.7534,4.07895 18.9113,6.67459 8.1578,2.22488 17.2426,4.26434 27.2546,6.11836 10.0117,1.48326 20.0236,2.41029 30.0356,2.78108 10.3825,0.37083 19.6528,-0.37079 27.8107,-2.22486 10.7534,-2.59565 19.4674,-5.93293 26.1422,-10.01188 6.6743,-4.44968 11.8657,-9.45561 15.574,-15.0178 4.0787,-5.93291 6.8598,-12.23668 8.3432,-18.91132 1.483,-7.04532 2.2247,-14.27611 2.2249,-21.69239 -2e-4,-7.0453 -4.6354,-16.68637 -13.9054,-28.92317 -8.8996,-12.2366 -21.878,-23.3609 -38.9351,-33.3729 -20.7655,-12.2366 -38.7498,-23.5463 -53.9528,-33.9292 -15.2033,-10.7532 -27.8109,-21.3213 -37.8227,-31.7042 -9.6411,-10.3825 -16.8719,-21.136 -21.6924,-32.2605 -4.8205,-11.124 -7.2308,-23.3608 -7.2308,-36.7102 0,-15.2029 3.1519,-29.6645 9.4557,-43.3848 6.6745,-14.0904 15.574,-26.3271 26.6983,-36.7102 11.495,-10.3823 25.0296,-18.5401 40.6037,-24.4734 15.9447,-6.3034 33.3728,-9.4553 52.2843,-9.4557 19.2819,4e-4 35.0413,1.2982 47.2782,3.8935 12.6074,2.2253 23.3608,5.0063 32.2605,8.3432 4.0787,1.4837 6.4889,3.1523 7.2308,5.006 1.1122,1.4836 1.2976,3.523 0.5562,6.1183 l -7.2308,35.5978 c -0.7418,4.0793 -2.0397,6.8603 -3.8935,8.3432 -1.4835,1.4836 -4.2645,1.4836 -8.3432,0 -5.5624,-1.8537 -11.6807,-3.5223 -18.3551,-5.0059 -6.6748,-1.8537 -13.5348,-3.337 -20.58,-4.4497 -7.0455,-1.1121 -13.9055,-1.8537 -20.5799,-2.2249 -6.304,-0.3704 -12.0515,-0.185 -17.2427,0.5562 -20.7655,3.3377 -35.4125,10.1976 -43.941,20.58 -8.1579,10.0122 -12.2368,22.8051 -12.2367,38.3788 -10e-5,9.2706 4.8204,19.6532 14.4616,31.1481 9.6409,11.1245 23.7317,22.2488 42.2723,33.3729 23.3609,14.091 42.4576,26.6985 57.2902,37.8226 15.203,11.1245 27.0689,21.878 35.5978,32.2605 8.8991,10.012 15.0175,20.2093 18.3551,30.5918 3.7078,10.3828 5.5618,21.69253 5.5621,33.92916 -3e-4,32.63134 -10.9392,60.44207 -32.8167,83.43227"
         id="path3588"
         style="font-weight:600;letter-spacing:5.78227186px;fill:#ffffff;font-family:NanumGothic;-inkscape-font-specification:NanumGothic Semi-Bold" />
      <path
         d="m 1640.1415,-875.00415 c -10e-5,4.82051 -2.4104,7.23077 -7.2308,7.2308 l -50.6156,0 c -4.8205,-3e-5 -7.2308,-2.41029 -7.2308,-7.2308 l 0,-404.92465 c 0,-4.8201 2.4103,-7.2304 7.2308,-7.2308 l 50.6156,0 c 4.8204,4e-4 7.2307,2.4107 7.2308,7.2308 l 0,404.92465"
         id="path3590"
         style="font-weight:600;letter-spacing:5.78227186px;fill:#ffffff;font-family:NanumGothic;-inkscape-font-specification:NanumGothic Semi-Bold" />
      <path
         d="m 2013.1302,-872.22307 c -10.7539,2.96645 -23.7322,5.74753 -38.9351,8.34323 -15.2035,2.59563 -32.817,3.89347 -52.8404,3.8935 -31.5191,-3e-5 -60.2569,-5.19137 -86.2134,-15.57402 -25.586,-10.38269 -47.4638,-25.02968 -65.6334,-43.941 -18.1697,-19.28208 -32.2605,-42.27228 -42.2723,-68.97068 -10.0119,-26.69816 -15.0179,-56.36296 -15.0178,-88.99446 -10e-5,-32.2602 4.8205,-61.7396 14.4616,-88.4382 10.0118,-26.698 24.1025,-49.5028 42.2723,-68.4144 18.1696,-19.2818 40.0474,-34.1142 65.6334,-44.4972 25.9565,-10.7531 54.8797,-16.1299 86.7696,-16.1303 16.6862,4e-4 33.0018,0.9274 48.9469,2.7811 15.9445,1.4836 30.4061,4.2647 43.3848,8.3432 4.0785,1.1128 6.4888,2.5961 7.2308,4.4497 0.7412,1.4837 0.9267,4.0793 0.5562,7.7871 l -1.1124,41.1599 c -4e-4,5.9333 -0.9274,8.8997 -2.7811,8.8994 -1.8544,3e-4 -5.0063,-0.7413 -9.4557,-2.2248 -27.811,-8.5283 -56.7342,-12.7927 -86.7695,-12.793 -22.9905,3e-4 -43.5704,3.8939 -61.7399,11.6805 -17.7991,7.7874 -33.0023,18.7262 -45.6097,32.8167 -12.2368,14.0911 -21.6925,30.9629 -28.3669,50.6156 -6.3039,19.2823 -9.4558,40.6039 -9.4557,63.9647 -10e-5,22.9904 3.5226,44.312 10.5681,63.9648 7.0453,19.28221 16.8717,36.15405 29.4794,50.61556 12.9782,14.09084 28.1814,25.21513 45.6096,33.37291 17.7987,8.15785 37.4516,12.23675 58.9588,12.23673 19.2819,2e-5 35.5975,-0.7416 48.947,-2.22486 13.7196,-1.85402 26.3272,-4.8205 37.8226,-8.89944 4.8202,-1.85402 7.9721,-2.41023 9.4557,-1.66865 1.4829,0.74166 2.2245,2.4103 2.2248,5.00594 l 2.2249,39.49128 c 0.3705,4.07889 -4e-4,7.04537 -1.1124,8.89944 -0.742,1.85403 -3.1523,3.33727 -7.2308,4.44972"
         id="path3592"
         style="font-weight:600;letter-spacing:5.78227186px;fill:#ffffff;font-family:NanumGothic;-inkscape-font-specification:NanumGothic Semi-Bold" />
    </g>
    <g
       transform="matrix(1.0695775,0,0,-0.93494858,-16,0)"
       id="text3214-9"
       style="font-size:525.22436523px;font-style:normal;font-variant:normal;font-weight:normal;font-stretch:normal;line-height:125%;letter-spacing:0px;word-spacing:0px;fill:#ffffff;fill-opacity:1;font-family:NanumGothic;-inkscape-font-specification:NanumGothic">
      <path
         d="m 503.4759,-472.80929 c -1.39623,-2e-5 -2.6528,-0.55849 -3.76971,-1.67543 -0.83775,-0.83773 -1.25661,-1.95468 -1.25657,-3.35085 l 0,-305.76559 c -4e-5,-1.39589 0.41882,-2.51284 1.25657,-3.35085 1.11691,-1.11666 2.37348,-1.67513 3.76971,-1.67543 l 37.27827,0 c 1.39611,3e-4 2.51306,0.55877 3.35086,1.67543 1.11686,0.83801 1.67534,1.95496 1.67543,3.35085 l 0,125.65709 129.84566,0 0,-125.65709 c -2.2e-4,-1.39589 0.41864,-2.51284 1.25657,-3.35085 1.11673,-1.11666 2.3733,-1.67513 3.76971,-1.67543 l 37.27827,0 c 1.39593,3e-4 2.51288,0.55877 3.35086,1.67543 1.11668,0.83801 1.67516,1.95496 1.67542,3.35085 l 0,305.76559 c -2.6e-4,1.39617 -0.55874,2.51312 -1.67542,3.35085 -0.83798,1.11694 -1.95493,1.67541 -3.35086,1.67543 l -37.27827,0 c -3.35107,-2e-5 -5.0265,-1.67545 -5.02628,-5.02628 l 0,-136.12851 -129.84566,0 0,136.12851 c -9e-5,3.35083 -1.67552,5.02626 -5.02629,5.02628 l -37.27827,0"
         id="path3595"
         style="font-size:418.85696411px;font-weight:600;letter-spacing:29.91835403px;word-spacing:747.8840332px;fill:#ffffff;font-family:NanumGothic;-inkscape-font-specification:NanumGothic Semi-Bold" />
      <path
         d="m 1063.0651,-512.6007 c -12.566,15.91657 -27.7844,27.64455 -45.6554,35.18399 -17.59222,7.81863 -37.41809,11.72796 -59.47771,11.72799 -24.57308,-3e-5 -45.79514,-4.46783 -63.66625,-13.40342 -17.59208,-8.65639 -32.11244,-20.52399 -43.56113,-35.60284 -11.16957,-15.07882 -19.5467,-32.53118 -25.13142,-52.35712 -5.30555,-20.10505 -7.9583,-41.32711 -7.95828,-63.66626 -2e-5,-21.78041 2.79235,-42.58362 8.37714,-62.40969 5.58472,-20.10492 14.10147,-37.69689 25.55028,-52.77598 11.44868,-15.07858 25.96904,-27.0858 43.56112,-36.0217 17.59187,-8.93532 38.5347,-13.40312 62.82854,-13.40342 23.73504,3e-4 44.39861,4.60772 61.99081,13.82228 17.5918,8.93589 32.1121,20.94311 43.5611,36.0217 11.7278,15.07909 20.3841,32.53144 25.9692,52.35712 5.8637,19.82607 8.6561,40.62928 8.3771,62.40969 -0.2795,24.57305 -3.2115,46.77245 -8.796,66.59825 -5.585,19.54671 -14.2414,36.71983 -25.9691,51.51941 M 957.93199,-750.51146 c -16.19595,2.6e-4 -30.15783,3.63035 -41.88569,10.89029 -11.44887,6.98118 -20.94295,16.19603 -28.48228,27.64456 -7.26027,11.16972 -12.70541,24.01466 -16.33542,38.53484 -3.35093,14.2413 -5.02636,28.48242 -5.02628,42.72341 -8e-5,14.24126 1.67535,28.622 5.02628,43.14226 3.63001,14.24122 9.07515,27.08615 16.33542,38.53484 7.53933,11.44881 17.03341,20.80327 28.48228,28.06342 11.72786,6.98097 25.68974,10.47144 41.88569,10.47143 16.19562,1e-5 30.01789,-3.49046 41.46684,-10.47143 11.72777,-7.26015 21.22187,-16.61461 28.48227,-28.06342 7.26,-11.44869 12.5655,-24.29362 15.9166,-38.53484 3.6298,-14.52026 5.4449,-28.901 5.4451,-43.14226 -2e-4,-13.96175 -1.6757,-28.06326 -5.0263,-42.30456 -3.3511,-14.24094 -8.7962,-27.08587 -16.3354,-38.53484 -7.2604,-11.44853 -16.7545,-20.80299 -28.48227,-28.06341 -11.44895,-7.25994 -25.27122,-10.89003 -41.46684,-10.89029"
         id="path3597"
         style="font-size:418.85696411px;font-weight:600;letter-spacing:29.91835403px;word-spacing:747.8840332px;fill:#ffffff;font-family:NanumGothic;-inkscape-font-specification:NanumGothic Semi-Bold" />
      <path
         d="m 1361.5166,-472.80929 c -3.0718,-2e-5 -5.3057,-0.27926 -6.7017,-0.83771 -1.1172,-0.27926 -2.3737,-1.39621 -3.7697,-3.35086 l -64.0852,-123.98166 -47.7496,0 0,122.72509 c -10e-5,3.63008 -1.8152,5.44512 -5.4452,5.44514 l -37.2783,0 c -3.3509,-2e-5 -5.0263,-1.81506 -5.0262,-5.44514 l 0,-305.34673 c -10e-5,-1.39589 0.4188,-2.51284 1.2565,-3.35085 1.1169,-1.11666 2.3735,-1.67513 3.7697,-1.67543 l 84.6092,0 c 30.9952,3e-4 55.5681,7.53971 73.7188,22.61828 18.1502,15.0791 27.2255,38.53507 27.2257,70.36797 -2e-4,20.38455 -4.4681,37.69729 -13.4034,51.93826 -8.9359,13.96204 -21.2223,24.57307 -36.8595,31.83313 l 69.9492,133.19651 c 2.2336,3.90932 0.5582,5.86398 -5.0263,5.864 l -35.184,0 m -122.3062,-271.83817 0,100.10682 34.3462,0 c 18.4296,1.5e-4 33.0896,-3.90918 43.98,-11.728 10.8901,-8.09773 16.3352,-21.36152 16.3354,-39.79141 -2e-4,-15.91635 -4.3283,-27.92357 -12.9845,-36.0217 -8.3773,-8.37689 -19.6865,-12.56546 -33.9275,-12.56571 l -47.7496,0"
         id="path3599"
         style="font-size:418.85696411px;font-weight:600;letter-spacing:29.91835403px;word-spacing:747.8840332px;fill:#ffffff;font-family:NanumGothic;-inkscape-font-specification:NanumGothic Semi-Bold" />
      <path
         d="m 1623.9398,-495.42756 c -7.2604,7.81865 -16.6148,14.38074 -28.0634,19.68627 -11.1697,5.58474 -23.0373,8.93559 -35.6029,10.05257 -6.7018,0.55845 -14.2412,0.55845 -22.6183,0 -8.0979,-0.5585 -16.0562,-1.53584 -23.8748,-2.932 -7.5395,-1.11697 -14.5204,-2.51316 -20.9429,-4.18857 -6.1432,-1.39621 -10.611,-2.7924 -13.4034,-4.18857 -4.1886,-1.95468 -6.7017,-3.49049 -7.5394,-4.60742 -0.8377,-0.83773 -0.9774,-2.79239 -0.4189,-5.864 l 2.932,-30.99542 c 0.2792,-2.23387 0.9773,-3.63006 2.0943,-4.18857 1.1169,-0.55844 3.2112,-0.13959 6.2829,1.25657 3.3508,1.39622 8.0978,3.07165 14.2411,5.02629 6.1432,1.67545 12.9845,3.21125 20.524,4.60742 7.5394,1.11697 15.0788,1.81507 22.6183,2.09429 7.8185,0.27925 14.7995,-0.27922 20.9428,-1.67543 8.0978,-1.95465 14.6599,-4.46778 19.6863,-7.53942 5.0262,-3.35083 8.9355,-7.12054 11.728,-11.30914 3.0715,-4.46777 5.1658,-9.21481 6.2829,-14.24114 1.1168,-5.30546 1.6752,-10.7506 1.6754,-16.33542 -2e-4,-5.30545 -3.4906,-12.56563 -10.4714,-21.78056 -6.7019,-9.21476 -16.4752,-17.59189 -29.32,-25.13142 -15.6375,-9.21473 -29.1805,-17.73148 -40.6291,-25.55028 -11.4489,-8.09775 -20.943,-16.05602 -28.4823,-23.87484 -7.2603,-7.81849 -12.7054,-15.91639 -16.3354,-24.29371 -3.6302,-8.37694 -5.4452,-17.59178 -5.4452,-27.64456 0,-11.44853 2.3735,-22.3388 7.1206,-32.67084 5.0262,-10.61078 11.7279,-19.82563 20.1051,-27.64456 8.6563,-7.81838 18.8485,-13.96161 30.5766,-18.42971 12.0071,-4.74674 25.1313,-7.12026 39.3725,-7.12056 14.5203,3e-4 26.3879,0.97763 35.6029,2.932 9.4939,1.67572 17.5918,3.77 24.2937,6.28285 3.0714,1.11724 4.8865,2.37381 5.4451,3.76971 0.8375,1.11724 0.9772,2.65305 0.4189,4.60743 l -5.4452,26.80684 c -0.5586,3.07188 -1.536,5.16616 -2.932,6.28286 -1.1171,1.1172 -3.2114,1.1172 -6.2828,0 -4.1888,-1.39594 -8.7962,-2.65251 -13.8223,-3.76971 -5.0264,-1.39594 -10.1923,-2.51289 -15.4977,-3.35086 -5.3057,-0.83745 -10.4716,-1.39593 -15.4977,-1.67543 -4.7472,-0.27898 -9.0754,-0.13936 -12.9846,0.41886 -15.6374,2.5134 -26.6673,7.6793 -33.0897,15.49771 -6.1433,7.53966 -9.2149,17.17336 -9.2148,28.90113 -10e-5,6.98116 3.63,14.79981 10.8902,23.45599 7.2601,8.37732 17.8712,16.75445 31.8332,25.13142 17.5918,10.61119 31.9726,20.10528 43.1422,28.48227 11.4486,8.37727 20.3842,16.47516 26.8069,24.2937 6.7015,7.53953 11.3089,15.21857 13.8223,23.03714 2.7921,7.81874 4.1883,16.33549 4.1885,25.55027 -2e-4,24.57298 -8.2377,45.51581 -24.7125,62.82855"
         id="path3601"
         style="font-size:418.85696411px;font-weight:600;letter-spacing:29.91835403px;word-spacing:747.8840332px;fill:#ffffff;font-family:NanumGothic;-inkscape-font-specification:NanumGothic Semi-Bold" />
      <path
         d="m 1752.2568,-472.39043 c -5.5848,-2e-5 -8.9356,-0.5585 -10.0525,-1.67543 -1.117,-0.83773 -1.6755,-4.3282 -1.6755,-10.47142 l 0,-292.78102 c 0,-5.58447 0.4189,-8.7957 1.2566,-9.63371 1.1169,-1.11666 4.3282,-1.67513 9.6337,-1.67543 l 148.6942,0 c 3.0715,3e-4 4.8865,0.55877 5.4452,1.67543 0.5583,0.83801 0.8375,2.51343 0.8377,5.02628 l 0,30.99542 c -2e-4,2.79263 -0.4191,4.7473 -1.2566,5.864 -0.8379,0.83796 -2.5133,1.25682 -5.0263,1.25657 l -113.5102,0 0,85.44682 108.0651,0 c 4.1884,1.6e-4 6.2827,2.23406 6.2829,6.70171 l 0,31.41427 c -2e-4,4.74717 -2.0945,7.12069 -6.2829,7.12057 l -108.0651,0 0,95.49939 118.5365,0 c 3.9092,2e-5 5.8638,2.37354 5.864,7.12057 l 0,31.41427 c -2e-4,4.46779 -1.9548,6.70169 -5.864,6.70171 l -152.8828,0"
         id="path3603"
         style="font-size:418.85696411px;font-weight:600;letter-spacing:29.91835403px;word-spacing:747.8840332px;fill:#ffffff;font-family:NanumGothic;-inkscape-font-specification:NanumGothic Semi-Bold" />
    </g>
  </g>
</svg>
