# Blender v2.76 (sub 0) OBJ File: 'track01.blend'
# www.blender.org
mtllib track01.mtl
o Grid
v 3.306782 0.781861 -3.306782
v 1.984069 0.566341 -3.306782
v 0.661356 0.937724 -3.306782
v -0.661357 1.694223 -3.306782
v -1.984069 1.752199 -3.306782
v -3.306782 1.672271 -3.306782
v 3.306782 0.671489 -1.984069
v -3.306782 1.096640 -1.984069
v 3.306782 0.736282 -0.661356
v -3.306782 0.509500 -0.661356
v 3.306782 0.830413 0.661357
v -3.306782 0.811322 0.661357
v 3.238384 0.594920 1.984069
v -3.306782 0.957196 1.984069
v 3.306782 0.641412 3.306782
v 1.984069 0.420204 3.306782
v 0.661356 0.586696 3.306782
v -0.661357 0.556715 3.306782
v -1.984069 0.837366 3.306782
v -3.053796 1.051763 2.988133
v 3.306782 0.753900 -3.968138
v 3.968138 0.781861 -3.306782
v 1.984069 0.566341 -3.968138
v 2.645426 0.722124 -3.306782
v 0.661356 0.937724 -3.968138
v 1.322713 0.671795 -3.306782
v -0.661357 1.694223 -3.968138
v -0.000000 1.351011 -3.306782
v -1.984069 1.752199 -3.968138
v -1.322713 1.840243 -3.306782
v -3.088994 1.672271 -3.759898
v -2.393403 1.604989 -3.194047
v 3.306782 0.716599 -2.645426
v 3.968138 0.671489 -1.984069
v -3.306782 1.441444 -2.645426
v -2.645426 1.096640 -1.984069
v 3.306782 0.665016 -1.322713
v 3.968138 0.736282 -0.661356
v -3.306782 0.643706 -1.322713
v -2.645426 0.509500 -0.661356
v 3.306782 0.843426 0.000000
v 3.968138 0.830413 0.661357
v -3.306782 0.531390 0.000000
v -2.645426 0.811322 0.661357
v 3.298032 0.724989 1.322713
v 3.968138 0.594920 1.984069
v -3.306782 0.992823 1.322713
v -2.645426 0.957196 1.984069
v 3.125321 0.641412 2.355934
v 3.673124 0.626096 3.064078
v 1.984069 0.420204 2.645426
v 2.645426 0.498700 3.306782
v 0.661356 0.586696 2.645426
v 1.322713 0.580598 3.306782
v -0.661357 0.556715 2.645426
v -0.000000 0.553511 3.306782
v -1.984069 0.837366 2.645426
v -1.322713 0.611091 3.306782
v -3.306782 1.051763 2.645426
v -2.645426 1.041405 3.306782
v -2.440215 1.041405 2.378553
v -1.322713 0.611091 2.645426
v -0.000000 0.553511 2.645426
v 1.322713 0.580598 2.645426
v 2.645426 0.498700 2.645426
v 3.859260 0.626096 2.645426
v -2.645426 0.992823 1.322713
v 3.968138 0.724989 1.322713
v -2.645426 0.531390 0.000000
v 3.968138 0.843426 0.000000
v -2.645426 0.643706 -1.322713
v 3.968138 0.665016 -1.322713
v -2.645426 1.441444 -2.645426
v 3.968138 0.716599 -2.645426
v -2.645426 1.604989 -3.968138
v -1.322713 1.840243 -3.968138
v -0.000000 1.351011 -3.968138
v 1.322713 0.671795 -3.968138
v 2.645426 0.722124 -3.968138
v 3.920447 0.753900 -3.824311
vn 0.005400 0.998900 -0.047600
vn -0.229300 0.973400 0.000000
vn 0.373100 0.927800 0.000000
vn 0.460600 0.887600 0.000000
vn -0.132000 0.991300 0.000000
vn 0.098500 0.995100 -0.002700
vn 0.000000 0.997700 0.068000
vn 0.000000 0.886700 0.462300
vn 0.000000 0.994200 -0.107100
vn 0.000000 0.980000 0.198900
vn 0.000000 0.999800 0.019700
vn 0.000000 0.920900 -0.389800
vn 0.000000 0.981200 0.193000
vn 0.000000 0.998600 0.053800
vn 0.027800 0.999600 0.000100
vn -0.117900 0.993000 0.000000
vn 0.009200 1.000000 0.000000
vn 0.004800 1.000000 0.000000
vn 0.323700 0.946200 0.000000
vn 0.016300 0.999900 -0.000600
vn 0.333600 0.941700 0.043100
vn -0.021700 0.986400 -0.162800
vn 0.081900 0.996600 0.000000
vn -0.050100 0.998700 0.000000
vn 0.235700 0.971800 0.000000
vn -0.236200 0.971300 0.026600
vn 0.024200 0.997300 -0.069800
vn 0.000000 0.964300 -0.264700
vn 0.000000 0.987500 0.157400
vn 0.000000 0.999500 -0.033100
vn 0.000000 0.987100 -0.159900
vn 0.000000 0.825100 0.565000
vn 0.000000 1.000000 0.009800
vn 0.018100 0.949500 0.313300
vn 0.000000 0.995200 0.098200
vn -0.260400 0.964400 0.045700
vn 0.215600 0.976500 0.000000
vn 0.529900 0.848000 0.000000
vn 0.157500 0.987500 0.000000
vn -0.069000 0.997400 -0.021100
usemtl None
s off
f 80//1 21//1 1//1 22//1
f 79//2 23//2 2//2 24//2
f 78//3 25//3 3//3 26//3
f 77//4 27//4 4//4 28//4
f 76//5 29//5 5//5 30//5
f 75//6 31//6 6//6 32//6
f 74//7 33//7 7//7 34//7
f 73//8 35//8 8//8 36//8
f 72//9 37//9 9//9 38//9
f 71//10 39//10 10//10 40//10
f 70//11 41//11 11//11 42//11
f 69//12 43//12 12//12 44//12
f 68//13 45//13 13//13 46//13
f 67//14 47//14 14//14 48//14
f 66//15 49//15 15//15 50//15
f 65//16 51//16 16//16 52//16
f 64//17 53//17 17//17 54//17
f 63//18 55//18 18//18 56//18
f 62//19 57//19 19//19 58//19
f 61//20 59//20 20//20 60//20
f 57//21 61//21 60//21 19//21
f 48//22 14//22 59//22 61//22
f 55//23 62//23 58//23 18//23
f 53//24 63//24 56//24 17//24
f 51//25 64//25 54//25 16//25
f 49//26 65//26 52//26 15//26
f 46//27 13//27 49//27 66//27
f 44//28 12//28 47//28 67//28
f 42//29 11//29 45//29 68//29
f 40//30 10//30 43//30 69//30
f 38//31 9//31 41//31 70//31
f 36//32 8//32 39//32 71//32
f 34//33 7//33 37//33 72//33
f 32//34 6//34 35//34 73//34
f 22//35 1//35 33//35 74//35
f 29//36 75//36 32//36 5//36
f 27//37 76//37 30//37 4//37
f 25//38 77//38 28//38 3//38
f 23//39 78//39 26//39 2//39
f 21//40 79//40 24//40 1//40
